<svg id="Layer_1" data-name="Layer 1" xmlns="http://www.w3.org/2000/svg" viewBox="0 0 361 176"><defs><style>.cls-1{opacity:0.63;}.cls-2{fill:#13001e;}.cls-3{fill:#3a2447;stroke:#000;stroke-miterlimit:10;}</style></defs><title>UI background</title><path class="cls-1" d="M362,189H20V15H369a12,12,0,0,1,12,12V170Z" transform="translate(-20 -13)"/><path class="cls-2" d="M0,0H349a12,12,0,0,1,12,12V140a30,30,0,0,1-30,30H0a0,0,0,0,1,0,0V0A0,0,0,0,1,0,0Z"/><path class="cls-3" d="M.5,2.5h344a12,12,0,0,1,12,12v119a30,30,0,0,1-30,30H.5a0,0,0,0,1,0,0V2.5A0,0,0,0,1,.5,2.5Z"/></svg>